<svg width="47" height="33" viewBox="0 0 47 33" fill="none" xmlns="http://www.w3.org/2000/svg">
<path d="M24.4886 0.559322V9.50848H31.0773V5.59322H33.5481C36.1256 5.59322 38.2151 7.72177 38.2151 10.3475C38.2151 12.9732 36.1256 15.1017 33.5481 15.1017H15.9782C13.5075 15.1017 11.5858 14.2627 10.4876 13.634C9.63199 13.1441 8.01689 11.5083 8.01689 9.78814C8.01689 7.47135 9.86055 5.59322 12.1348 5.59322C14.0565 5.59322 15.9782 6.15256 18.1745 8.66949L21.1943 4.19492C18.1745 1.11866 14.8801 1.05099e-05 11.3112 0C5.85298 0 1.42819 4.50751 1.42819 10.0678C1.42819 15.6281 5.85298 20.1356 11.3112 20.1356H15.9782H34.0971C39.4038 20.1356 43.7057 15.7533 43.7057 10.3475C43.7057 4.94162 39.4038 0.559322 34.0971 0.559322H24.4886Z" fill="white"/>
<path d="M24.4886 33H36.0188C42.0836 33 47 27.9917 47 21.8136C47 20.4316 46.754 19.1083 46.3042 17.8863C46.0185 17.1101 44.9551 17.1562 44.4925 17.8419C43.548 19.2421 42.2552 20.3794 40.7414 21.1242C40.8838 21.6082 40.9604 22.1213 40.9604 22.6525C40.9604 25.5871 38.6251 27.9661 35.7443 27.9661H31.0773V22.9322H24.4886V33Z" fill="white"/>
<path d="M10.7622 33C16.6834 33 21.6095 28.6599 22.6423 22.9322H21.7433H16.8927C15.9008 25.5499 13.4071 27.4068 10.4876 27.4068C8.00451 27.4068 5.82937 26.0634 4.62435 24.0512C4.2522 23.4297 3.3798 23.2034 2.84479 23.6917L0.55923 25.7777C0.228466 26.0796 0.135162 26.5669 0.36016 26.9541C2.46322 30.5732 6.33449 33 10.7622 33Z" fill="white"/>
</svg>
