<svg width="115" height="101" viewBox="0 0 115 101" fill="none" xmlns="http://www.w3.org/2000/svg">
<g filter="url(#filter0_d_1_8215)">
<path d="M58.2862 34.5593V43.5085H64.8205V39.5932H67.2708C69.827 39.5932 71.8992 41.7218 71.8992 44.3475C71.8992 46.9732 69.827 49.1017 67.2708 49.1017H49.8462C47.3958 49.1017 45.49 48.2627 44.401 47.634C43.5524 47.1441 41.9506 45.5083 41.9506 43.7881C41.9506 41.4713 43.7791 39.5932 46.0345 39.5932C47.9404 39.5932 49.8462 40.1526 52.0243 42.6695L55.0191 38.1949C52.0243 35.1187 48.7571 34 45.2178 34C39.8046 34 35.4164 38.5075 35.4164 44.0678C35.4164 49.6281 39.8046 54.1356 45.2178 54.1356H49.8462H67.8153C73.0781 54.1356 77.3444 49.7533 77.3444 44.3475C77.3444 38.9416 73.0781 34.5593 67.8153 34.5593H58.2862Z" fill="#1399E4"/>
<path d="M58.2862 67H69.7212C75.7358 67 80.6116 61.9917 80.6116 55.8136C80.6116 54.4386 80.3701 53.1216 79.9283 51.9049C79.6449 51.1245 78.5765 51.1698 78.1135 51.8588C77.1777 53.2512 75.8999 54.3824 74.4047 55.1242C74.5459 55.6082 74.6218 56.1213 74.6218 56.6525C74.6218 59.5871 72.3058 61.9661 69.4489 61.9661H64.8205V56.9322H58.2862V67Z" fill="#1399E4"/>
<path d="M44.6732 67C50.5455 67 55.4309 62.6599 56.4552 56.9322H55.5636H50.7531C49.7694 59.5499 47.2963 61.4068 44.401 61.4068C41.9431 61.4068 39.7894 60.0686 38.593 58.0627C38.2205 57.4382 37.343 57.2115 36.8079 57.704L34.5528 59.7794C34.2253 60.0808 34.1329 60.5646 34.355 60.9503C36.4401 64.5715 40.2806 67 44.6732 67Z" fill="#1399E4"/>
</g>
<defs>
<filter id="filter0_d_1_8215" x="0.233398" y="0" width="114.378" height="101" filterUnits="userSpaceOnUse" color-interpolation-filters="sRGB">
<feFlood flood-opacity="0" result="BackgroundImageFix"/>
<feColorMatrix in="SourceAlpha" type="matrix" values="0 0 0 0 0 0 0 0 0 0 0 0 0 0 0 0 0 0 127 0" result="hardAlpha"/>
<feOffset/>
<feGaussianBlur stdDeviation="17"/>
<feColorMatrix type="matrix" values="0 0 0 0 0.0745098 0 0 0 0 0.6 0 0 0 0 0.894118 0 0 0 0.4 0"/>
<feBlend mode="normal" in2="BackgroundImageFix" result="effect1_dropShadow_1_8215"/>
<feBlend mode="normal" in="SourceGraphic" in2="effect1_dropShadow_1_8215" result="shape"/>
</filter>
</defs>
</svg>
