<svg width="20" height="20" viewBox="0 0 20 20" fill="none" xmlns="http://www.w3.org/2000/svg">
<g clip-path="url(#clip0_1_1728)">
<path d="M9.96264 -0.0124753C9.94545 -0.00935033 9.92826 -0.00466285 9.91264 2.46717e-05C9.7267 0.0422123 9.59545 0.2094 9.60014 0.400025V1.21252C5.0642 1.41721 1.41732 5.06409 1.21264 9.60002H0.400137C0.387637 9.60002 0.375137 9.60002 0.362637 9.60002C0.142324 9.61096 -0.0295509 9.79846 -0.0186134 10.0188C-0.00767589 10.2391 0.179824 10.411 0.400137 10.4H1.21264C1.41732 14.936 5.0642 18.5828 9.60014 18.7875V19.6C9.59857 19.7438 9.67357 19.8782 9.79857 19.9516C9.92357 20.0235 10.0767 20.0235 10.2017 19.9516C10.3267 19.8782 10.4017 19.7438 10.4001 19.6V18.775C14.3017 18.6 17.5517 15.8985 18.5126 12.25C18.5673 12.036 18.4392 11.8172 18.2251 11.7625C18.0111 11.7078 17.7923 11.836 17.7376 12.05C16.8673 15.3516 13.9361 17.8125 10.4001 17.9875V16.4C10.4033 16.2766 10.3486 16.1594 10.2533 16.0813C10.1595 16.0031 10.0329 15.9735 9.91264 16C9.7267 16.0422 9.59545 16.2094 9.60014 16.4V17.9875C5.49545 17.786 2.2142 14.5047 2.01264 10.4H3.60014C3.74389 10.4016 3.87826 10.3266 3.9517 10.2016C4.02357 10.0766 4.02357 9.92346 3.9517 9.79846C3.87826 9.67346 3.74389 9.59846 3.60014 9.60002H2.01264C2.2142 5.49534 5.49545 2.21409 9.60014 2.01252V3.60002C9.59857 3.74377 9.67357 3.87815 9.79857 3.95159C9.92357 4.02346 10.0767 4.02346 10.2017 3.95159C10.3267 3.87815 10.4017 3.74377 10.4001 3.60002V2.01252C13.9361 2.18752 16.8673 4.64846 17.7376 7.95002C17.7923 8.16409 18.0111 8.29221 18.2251 8.23752C18.4392 8.18284 18.5673 7.96409 18.5126 7.75002C17.5517 4.10159 14.3017 1.40002 10.4001 1.22502V0.400025C10.4048 0.2844 10.3579 0.173462 10.2751 0.0953371C10.1908 0.0156497 10.0767 -0.0234128 9.96264 -0.0124753ZM12.8001 6.80002L14.4626 10L12.8001 13.2L20.0001 10L12.8001 6.80002Z" fill="#333C4D" fill-opacity="0.5"/>
</g>
<defs>
<clipPath id="clip0_1_1728">
<rect width="20" height="20" fill="white"/>
</clipPath>
</defs>
</svg>
