<svg width="24" height="24" viewBox="0 0 24 24" fill="none" xmlns="http://www.w3.org/2000/svg">
<path d="M12 0.0439453C5.40084 0.0439453 0.0400086 5.40478 0.0400085 12.0039C0.0400085 18.2983 4.91829 23.4623 11.0951 23.9264C11.1073 23.9274 11.1194 23.9285 11.1316 23.9294C11.4189 23.9501 11.7076 23.9639 12 23.9639C12.2924 23.9639 12.5812 23.9501 12.8684 23.9294C12.8806 23.9285 12.8928 23.9274 12.9049 23.9264C19.0817 23.4623 23.96 18.2983 23.96 12.0039C23.96 5.40478 18.5992 0.0439453 12 0.0439453ZM12 1.08395C18.0371 1.08395 22.92 5.96684 22.92 12.0039C22.92 14.9844 21.7265 17.6804 19.7949 19.6496C18.9686 19.0478 17.9473 18.6888 17.0324 18.3679C15.9487 17.9883 14.9235 17.6284 14.6396 17.0029C14.5949 16.4688 14.5989 16.0518 14.6031 15.5729L14.6041 15.3697C15.0658 14.9303 15.6465 14.003 15.8452 13.1465C16.1884 12.9635 16.608 12.5247 16.7338 11.4738C16.7968 10.9522 16.6483 10.5483 16.4403 10.2774C16.7211 9.31278 17.2798 6.87085 16.3012 5.29473C15.8873 4.62861 15.2627 4.20834 14.4416 4.04246C13.9803 3.4715 13.1099 3.15988 11.9462 3.15988C10.1777 3.19264 8.88117 3.73433 8.09493 4.76965C7.16777 5.99165 6.99258 7.83796 7.5729 10.2601C7.35814 10.531 7.20324 10.9408 7.2672 11.4728C7.39356 12.5237 7.81165 12.9625 8.15485 13.1455C8.35349 14.003 8.93367 14.9303 9.39595 15.3697L9.39696 15.5678C9.40112 16.0488 9.40512 16.4667 9.3604 17.0029C9.07544 17.63 8.04529 17.9937 6.95641 18.378C6.04699 18.6991 5.03182 19.0587 4.20712 19.6526C2.27404 17.6832 1.08001 14.9857 1.08001 12.0039C1.08001 5.96684 5.9629 1.08395 12 1.08395Z" fill="#9BA6BC"/>
</svg>
