<svg width="28" height="28" viewBox="0 0 28 28" fill="none" xmlns="http://www.w3.org/2000/svg">
<path d="M11.76 1.67993C6.5078 1.67993 2.23999 5.94774 2.23999 11.1999C2.23999 16.4521 6.5078 20.7199 11.76 20.7199C13.8381 20.7199 15.7587 20.0506 17.325 18.9174L24.6925 26.2674L26.2675 24.6924L18.9875 17.3949C20.4181 15.7281 21.28 13.5646 21.28 11.1999C21.28 5.94774 17.0122 1.67993 11.76 1.67993ZM11.76 2.79993C16.4062 2.79993 20.16 6.55368 20.16 11.1999C20.16 15.8462 16.4062 19.5999 11.76 19.5999C7.11374 19.5999 3.35999 15.8462 3.35999 11.1999C3.35999 6.55368 7.11374 2.79993 11.76 2.79993Z" fill="white"/>
</svg>
