<svg width="16" height="16" viewBox="0 0 16 16" fill="none" xmlns="http://www.w3.org/2000/svg">
<path d="M7.99998 0.970215C7.80363 0.970215 7.60677 1.05528 7.49607 1.22568L5.02693 5.03076L0.644119 6.20381C0.447919 6.25601 0.292275 6.40376 0.229275 6.59756C0.166875 6.79076 0.205772 7.00343 0.333572 7.16123L3.18943 10.6862L2.95154 15.2155C2.94074 15.4183 3.03323 15.6129 3.19763 15.7323C3.36203 15.8523 3.57639 15.8793 3.76599 15.8073L7.99998 14.1819L12.2351 15.8073C12.3047 15.8337 12.377 15.8472 12.4496 15.8472C12.5744 15.8472 12.6985 15.8079 12.8023 15.7323C12.9667 15.6129 13.0592 15.4183 13.0484 15.2155L12.8117 10.6862L15.6664 7.16123C15.7936 7.00343 15.8337 6.79076 15.7707 6.59756C15.7077 6.40436 15.552 6.25661 15.3558 6.20381L10.973 5.03076L8.50389 1.22568C8.39318 1.05528 8.19633 0.970215 7.99998 0.970215Z" fill="#1399E4"/>
</svg>
