<svg width="26" height="26" viewBox="0 0 26 26" fill="none" xmlns="http://www.w3.org/2000/svg">
<g clip-path="url(#clip0_1_381)">
<path d="M23.4 1.04004C22.8251 1.04004 22.36 1.5052 22.36 2.08004C22.36 2.23238 22.3986 2.37254 22.4575 2.50254L18.2975 8.32004C18.265 8.31801 18.2325 8.32004 18.2 8.32004C17.9928 8.32004 17.7937 8.37691 17.6312 8.48254L14.04 6.69504C14.0055 6.15066 13.5525 5.72004 13 5.72004C12.4251 5.72004 11.96 6.18519 11.96 6.76004C11.96 6.81488 11.9681 6.86973 11.9762 6.92254L8.17374 9.94504C8.05796 9.90035 7.93202 9.88004 7.79999 9.88004C7.27999 9.88004 6.85343 10.2599 6.77624 10.7575L3.23374 12.1875C3.05702 12.0494 2.83968 11.96 2.59999 11.96C2.02515 11.96 1.55999 12.4252 1.55999 13C1.55999 13.5749 2.02515 14.04 2.59999 14.04C3.12405 14.04 3.55264 13.6521 3.62374 13.1463L7.16624 11.7325C7.34296 11.8707 7.5603 11.96 7.79999 11.96C8.37483 11.96 8.83999 11.4949 8.83999 10.92C8.83999 10.8652 8.83186 10.8104 8.82374 10.7575L12.6262 7.73504C12.742 7.77973 12.868 7.80004 13 7.80004C13.2072 7.80004 13.4062 7.74316 13.5687 7.63754L17.16 9.42504C17.1945 9.96941 17.6475 10.4 18.2 10.4C18.7748 10.4 19.24 9.93488 19.24 9.36004C19.24 9.2077 19.2014 9.06754 19.1425 8.93754L23.3025 3.12004C23.335 3.12207 23.3675 3.12004 23.4 3.12004C23.9748 3.12004 24.44 2.65488 24.44 2.08004C24.44 1.5052 23.9748 1.04004 23.4 1.04004ZM21.32 7.80004V26H25.48V7.80004H21.32ZM10.92 12.48V26H15.08V12.48H10.92ZM16.12 15.08V26H20.28V15.08H16.12ZM5.71999 16.64V26H9.87999V16.64H5.71999ZM0.519989 18.72V26H4.67999V18.72H0.519989Z" fill="#EEEEEE"/>
</g>
<defs>
<clipPath id="clip0_1_381">
<rect width="26" height="26" fill="white"/>
</clipPath>
</defs>
</svg>
