<svg width="18" height="18" viewBox="0 0 18 18" fill="none" xmlns="http://www.w3.org/2000/svg">
<path d="M16.9499 0.599912C16.9108 0.606162 16.8733 0.618662 16.8374 0.637412L0.837387 7.51241C0.6952 7.57491 0.603013 7.71554 0.599887 7.87022C0.596763 8.02647 0.685825 8.16866 0.824887 8.23741L6.78739 11.2124L9.76239 17.1749C9.83114 17.314 9.97332 17.403 10.1296 17.3999C10.2843 17.3968 10.4249 17.3046 10.4874 17.1624L17.3624 1.16241C17.4218 1.03116 17.4061 0.876474 17.3202 0.760849C17.2358 0.643662 17.0936 0.582724 16.9499 0.599912ZM15.2499 2.18741L6.99989 10.4374L1.94989 7.91241L15.2499 2.18741ZM15.8124 2.74991L10.0874 16.0499L7.56239 10.9999L15.8124 2.74991Z" fill="#333C4D" fill-opacity="0.5"/>
</svg>
