<svg width="72" height="72" viewBox="0 0 72 72" fill="none" xmlns="http://www.w3.org/2000/svg">
<path d="M36 13C23.2983 13 13 23.2983 13 36C13 48.7017 23.2983 59 36 59C48.7017 59 59 48.7017 59 36C59 23.2983 48.7017 13 36 13ZM22.5833 49.6869C24.8201 42.9786 31.5284 45.5967 32.6458 41.9627V39.5401C32.1437 39.2698 30.7043 37.4145 30.5528 35.9655C30.1561 35.931 29.5351 35.5381 29.3511 33.9837C29.2533 33.1499 29.6443 32.6803 29.8801 32.5327C29.8801 32.5327 29.2897 31.1873 29.2897 29.8513C29.2917 25.88 31.2582 22.5833 36 22.5833C38.5607 22.5833 39.3542 24.3984 39.3542 24.3984C41.6427 24.3984 42.7083 26.9073 42.7083 29.8494C42.7083 31.3157 42.118 32.5308 42.118 32.5308C42.3557 32.6784 42.7467 33.148 42.6489 33.9817C42.4649 35.5362 41.8439 35.9291 41.4472 35.9636C41.2957 37.4126 39.8582 39.2679 39.3542 39.5382V41.9608C40.4716 45.5968 47.1799 42.9786 49.4167 49.6869C49.4167 49.6869 44.3988 55.1667 36 55.1667C27.5532 55.1667 22.5833 49.6869 22.5833 49.6869Z" fill="#9BA6BC"/>
<circle opacity="0.3" cx="36" cy="36" r="34" stroke="#9BA6BC" stroke-width="3" stroke-linecap="round"/>
<path d="M36 2C41.8174 2 47.5375 3.49264 52.6131 6.33514C57.6888 9.17763 61.9502 13.2749 64.9898 18.235C68.0294 23.1952 69.7454 28.8523 69.9738 34.6652C70.2022 40.4781 68.9353 46.2523 66.2942 51.4357C63.6532 56.619 59.7264 61.038 54.8894 64.27C50.0524 67.5019 44.4671 69.4388 38.6676 69.8952C32.8682 70.3516 27.0486 69.3124 21.7656 66.8769C16.4826 64.4414 11.9128 60.6911 8.49344 55.9847" stroke="#1399E4" stroke-width="3" stroke-linecap="round"/>
</svg>
